<?xml version="1.0" encoding="UTF-8"?>
<svg viewBox="0 0 145.97884 218.119" xmlns="http://www.w3.org/2000/svg">
 <defs>
  <linearGradient id="h" x1="-1439.4" x2="-1447" y1="251.48" y2="270.87" gradientTransform="matrix(.9978 -.0658 .0658 .9978 8.217 -101.36)" gradientUnits="userSpaceOnUse">
   <stop offset=".0769"/>
   <stop stop-color="#fff" offset=".467"/>
   <stop stop-color="#dbdbdb" offset=".4888"/>
   <stop stop-color="#b7b7b7" offset=".5155"/>
   <stop stop-color="#969696" offset=".5454"/>
   <stop stop-color="#7b7b7b" offset=".5786"/>
   <stop stop-color="#656565" offset=".616"/>
   <stop stop-color="#545454" offset=".6597"/>
   <stop stop-color="#484848" offset=".7138"/>
   <stop stop-color="#424242" offset=".7896"/>
   <stop stop-color="#404040" offset="1"/>
  </linearGradient>
  <linearGradient id="b" x1="-1517.9" x2="-1526.7" y1="448.51" y2="470.84" gradientUnits="userSpaceOnUse">
   <stop offset=".0769"/>
   <stop stop-color="#fff" offset=".467"/>
   <stop stop-color="#dbdbdb" offset=".4888"/>
   <stop stop-color="#b7b7b7" offset=".5155"/>
   <stop stop-color="#969696" offset=".5454"/>
   <stop stop-color="#7b7b7b" offset=".5786"/>
   <stop stop-color="#656565" offset=".616"/>
   <stop stop-color="#545454" offset=".6597"/>
   <stop stop-color="#484848" offset=".7138"/>
   <stop stop-color="#424242" offset=".7896"/>
   <stop stop-color="#404040" offset="1"/>
  </linearGradient>
  <linearGradient id="a" x1="-1516" x2="-1589.4" y1="476.93" y2="633.36" gradientUnits="userSpaceOnUse">
   <stop offset="0"/>
   <stop stop-color="#050505" offset=".1759"/>
   <stop stop-color="#131313" offset=".3805"/>
   <stop stop-color="#2a2a2a" offset=".5993"/>
   <stop stop-color="#4b4b4b" offset=".8265"/>
   <stop stop-color="#696969" offset="1"/>
  </linearGradient>
  <radialGradient id="g" cx="-1438.9" cy="332.46" r="373.38" gradientUnits="userSpaceOnUse">
   <stop stop-color="#fff" offset="0"/>
   <stop stop-color="#e9e6e0" offset=".06"/>
   <stop stop-color="#d7d1c5" offset=".1274"/>
   <stop stop-color="#c7bfaf" offset=".2049"/>
   <stop stop-color="#bbb19e" offset=".2954"/>
   <stop stop-color="#b3a893" offset=".4072"/>
   <stop stop-color="#aea38c" offset=".5642"/>
   <stop stop-color="#ada18a" offset="1"/>
  </radialGradient>
  <radialGradient id="f" cx="-1488.6" cy="308.51" r="77.894" gradientUnits="userSpaceOnUse">
   <stop stop-color="#fff" offset="0"/>
   <stop stop-color="#dbdbdb" offset=".0409"/>
   <stop stop-color="#b7b7b7" offset=".0909"/>
   <stop stop-color="#969696" offset=".1471"/>
   <stop stop-color="#7b7b7b" offset=".2093"/>
   <stop stop-color="#656565" offset=".2796"/>
   <stop stop-color="#545454" offset=".3616"/>
   <stop stop-color="#484848" offset=".463"/>
   <stop stop-color="#424242" offset=".6052"/>
   <stop stop-color="#404040" offset="1"/>
  </radialGradient>
  <radialGradient id="e" cx="-1422.3" cy="330.15" r="83.024" gradientUnits="userSpaceOnUse">
   <stop stop-color="#fff" offset="0"/>
   <stop stop-color="#e7e7e7" offset=".0227"/>
   <stop stop-color="#bebebe" offset=".0674"/>
   <stop stop-color="#989898" offset=".1176"/>
   <stop stop-color="#787878" offset=".1722"/>
   <stop stop-color="#5d5d5d" offset=".2325"/>
   <stop stop-color="#474747" offset=".3007"/>
   <stop stop-color="#363636" offset=".3803"/>
   <stop stop-color="#2a2a2a" offset=".4787"/>
   <stop stop-color="#232323" offset=".6168"/>
   <stop stop-color="#212121" offset="1"/>
  </radialGradient>
  <radialGradient id="d" cx="-1477.1" cy="330.67" r="32.465" gradientUnits="userSpaceOnUse">
   <stop stop-color="#fff" offset="0"/>
   <stop stop-color="#f4f4f4" offset=".0238"/>
   <stop stop-color="#d9d9d9" offset=".0937"/>
   <stop stop-color="#c3c3c3" offset=".1742"/>
   <stop stop-color="#b3b3b3" offset=".2682"/>
   <stop stop-color="#a7a7a7" offset=".3844"/>
   <stop stop-color="#a0a0a0" offset=".5474"/>
   <stop stop-color="#9e9e9e" offset="1"/>
  </radialGradient>
  <radialGradient id="c" cx="-1478.8" cy="330.9" r="15.151" gradientUnits="userSpaceOnUse">
   <stop stop-color="#fff" offset="0"/>
   <stop stop-color="#f4f4f4" offset=".0238"/>
   <stop stop-color="#d9d9d9" offset=".0937"/>
   <stop stop-color="#c3c3c3" offset=".1742"/>
   <stop stop-color="#b3b3b3" offset=".2682"/>
   <stop stop-color="#a7a7a7" offset=".3844"/>
   <stop stop-color="#a0a0a0" offset=".5474"/>
   <stop stop-color="#9e9e9e" offset="1"/>
  </radialGradient>
 </defs>
 <g transform="matrix(.54275 0 0 .54275 860.3 -111.11)">
  <path d="m-1491.6 492.5 31.557-20.286 29.303-45.983 59.056-68.523 11.722-81.146 4.057-27.049 25.696-19.385 8.565 5.41s6.762 9.918 5.41 25.696-16.68 141.56-57.704 204.67-72.367 118.5-96.474 134.79c-16.68 11.271-27.049 0-33.36-8.565-6.312-8.566 12.172-99.631 12.172-99.631z" fill="#8f8259"/>
  <path d="m-1409.1 445.16s-71.68 76.639-79.794 100.98c-1.086 3.257 7.213-48.688 7.213-48.688l50.491-57.704 6.311-2.254 15.779 7.664z" opacity=".14"/>
  <path d="m-1366.3 314.42s30.655 11.722 35.163 10.82 7.213-0.451 4.959-6.763c0 0 5.41 3.156 6.762 4.058s-6.762 27.049-6.762 27.049-4.057-0.451-10.369-0.901-32.458-7.664-32.458-7.664l2.705-26.599z" fill="#58443b"/>
  <path d="m-1364.1 455.98c-3.156 2.705-59.057-16.229-59.057-16.229l29.754-57.704s57.253 9.017 58.605 10.369-7.213 23.893-8.565 25.696-4.057-0.901-6.312-0.901-11.27 36.064-14.425 38.769z" fill="#58443b"/>
  <path d="m-1318.5 245.45s-10.819-1.353-17.582 10.368-20.286 59.508-21.188 61.311-13.524-2.254-13.524-2.254l-1.803-58.605 42.376-26.147c0-1e-3 11.27 5.409 11.721 15.327z" opacity=".12"/>
  <path d="m-1365.9 445.61s-10.82-11.271-9.918-27.049-9.016-28.401-9.016-28.401l-38.319 47.335 53.647 16.681s5.41-3.607 3.606-8.566z" opacity=".21"/>
  <path d="m-1381.6 389.5 36.966 4.268 9.017 0.45s-4.959 7.664-10.82 10.82c-5.86 3.155-22.991-0.451-26.598-1.804s-8.565-13.734-8.565-13.734l7.213 2.254" fill="#1a1a1a" opacity=".26"/>
  <path d="m-1363.6 446.51 6.762 3.155s-16.68 45.082-18.483 49.59-28.401 20.988-28.401 13.976c0-1.353 2.705-4.058 2.705-4.058l16.229-11.722s5.41 2.705 21.188-50.941z" fill="#adadad"/>
  <path d="m-1342 326.15c-4.959 2.705-11.721 7.213-18.032 11.271s-5.41-18.935-5.41-18.935 24.344 4.058 23.893 5.86l-0.451 1.804z" opacity=".25"/>
  <path d="m-1564.7 429.38-4.959 15.327-4.057 4.509-4.509-4.959 1.804-15.328 12.172-27.951 4.958 11.271-5.409 17.131" fill="#b9b9b9" stroke="#000"/>
  <path d="m-1479.9 249.06 24.344-21.189l0.45 5.409-10.819 13.976z" fill="#a3a3a3"/>
  <path d="m-1469.8 598.75c-6.857 3.956-21.323 8.766-25.319-4.407-5.454-17.983 6.523-51.088 11.969-68.477 5.927-18.927 7.422-38.787 12.192-55.848-14.331-2.632-32.643-14.42-46.336-18.988-12.201-4.07-37.535-20.092-48.717-21.201 0 0-8.115 7.214-8.565 14.877s1.803 10.369 0 14.877-9.918 61.311-8.565 65.368-3.606 32.459 26.598 55.45 58.155 27.95 73.031 25.696 13.074-5.41 13.074-5.41" fill="#58443b"/>
  <path d="m-1319.9 240.04c0.936-23.029-62.657-34.262-77.538-34.262-30.651 0-50.811 19.22-69.526 36.19 18.147 9.782 41.522 7.405 59.46 18.39 6.458 3.955 26.34 11.063 33.868 9.445 13.856-2.977 46.611-50.499 54.341-28.467" fill="#58443b"/>
  <path d="m-1351.4 260.78s2.705 6.312 2.705 8.115-2.705 10.819-4.057 11.721-8.565 25.696-8.565 29.754 3.606 35.163 0.451 46.434-19.385 44.18-19.385 44.18-13.975 18.032-16.68 19.385-18.483 12.172-21.188 14.877-18.934 20.737-19.836 22.991-20.737 35.164-23.442 35.614-12.172-0.45-12.172-0.45l-2.254-4.058" fill="#9e9e9e" stroke="#000"/>
  <path d="m-1460.6 233.57s-4.142 5.695-1.745 7.796 82.865 30.226 89.671 30.68c6.807 0.455 6.931-4.523 6.931-4.523s-89.039-34.788-94.857-33.953z" fill="url(#h)" opacity=".11"/>
  <path d="m-1466 451.92s-54.999 6.312-86.556-33.359l8.115-11.271 83.4 31.105-4.959 13.525z" fill="#484848" stroke="#000"/>
  <path d="m-1358.7 255.82s7.664 3.156 7.213 4.959-13.524 31.106-13.524 40.573 4.508 43.729-1.804 51.844c-6.311 8.114-2.254-0.901-2.254-0.901l-19.836 39.671 3.156 3.606s-9.917 13.074-18.934 19.386-18.934 13.524-21.188 17.131-19.385 20.737-21.639 24.794-20.287 33.36-20.287 33.36l-8.115-0.901 11.271-43.729s-41.281 4.274-64.466-10.369c-17.131-10.819-29.303-21.188-35.164-29.303l-13.975 38.319s-4.508-1.353-6.312-5.861c0 0 7.664-17.131 8.565-55.449s10.369-62.213 10.369-62.213l56.803-62.212s35.163-24.344 43.729-31.106l9.467 0.451-21.639 20.286 95.122 30.655s1.165 4.564 7.213-4.508c0.902-1.352 16.229-18.483 16.229-18.483z" fill="#80817c" stroke="#000"/>
  <path d="m-1546.6 290.08s-54.098 60.86-4.058 118.11 131.64 19.836 160.04-18.032 36.967-118.56-36.065-139.3-119.92 39.221-119.92 39.221z" fill="#bdbdbd"/>
  <path d="m-1384.9 356.6c-14.133 47.048-83.141 84.3-133.76 62.855-44.667-18.924-62.438-73.166-38.216-112.64 27.154-44.25 79.603-64.452 115.66-54.81 43.244 11.566 73.998 45.739 56.318 104.59z" fill="#5c5c5c"/>
  <path d="m-1392.6 354.96c-12.913 42.984-75.961 77.02-122.21 57.428-40.81-17.29-57.045-66.848-34.916-102.91 24.809-40.429 72.728-58.886 105.67-50.076 39.511 10.566 67.609 41.787 51.455 95.559z" fill="url(#g)" stroke="#000"/>
  <path d="m-1469.6 396.92-3.606-13.525l-2.254 13.976 3.155 4.508z" fill="#828282"/>
  <path d="m-1478.8 277.74-2.811 13.713l-3.066-13.82 2.887-4.685z" fill="#828282"/>
  <path d="m-1529.3 376.67 8.699-10.966l-12.558 6.533-1.734 5.223z" fill="#828282"/>
  <path d="m-1422.1 297.23-13.042 5.08l9.945-10.075 5.501-0.117z" fill="#828282"/>
  <path d="m-1416.9 356.95-11.765-7.583l13.993 2.144 3.321 4.387z" fill="#828282"/>
  <path d="m-1533.3 318.54 13.947 1.169l-12.395-6.838-5.308 1.449z" fill="#828282"/>
  <path d="m-1481.3 325.69-0.45-6.761-24.345-27.5l14.877 33.811 4.959 2.704z" fill="url(#f)"/>
  <path d="m-1442.1 266.19-4.057 4.958" fill="none" stroke="#000" stroke-width="3"/>
  <path d="m-1412.7 286.07-5.0351 3.963" fill="none" stroke="#000" stroke-width="3"/>
  <path d="m-1396.7 318.28-6.3509 0.84802" fill="none" stroke="#000" stroke-width="3"/>
  <path d="m-1402.3 358.61-5.993-2.265" fill="none" stroke="#000" stroke-width="3"/>
  <path d="m-1434.7 387.82 3.8291 5.138" fill="none" stroke="#000" stroke-width="3"/>
  <path d="m-1471.6 403.89 0.906 6.343" fill="none" stroke="#000" stroke-width="3"/>
  <path d="m-1510.6 399.99-2.1491 6.036" fill="none" stroke="#000" stroke-width="3"/>
  <path d="m-1538.2 378.81-4.8189 4.222" fill="none" stroke="#000" stroke-width="3"/>
  <path d="m-1547.9 346.12-6.0931 1.985" fill="none" stroke="#000" stroke-width="3"/>
  <path d="m-1539.6 313.33-6.3331-0.974" fill="none" stroke="#000" stroke-width="3"/>
  <path d="m-1519.5 281.43 3.849 5.123" fill="none" stroke="#000" stroke-width="3"/>
  <path d="m-1481.8 264.56-0.264 6.402" fill="none" stroke="#000" stroke-width="3"/>
  <path d="m-1466 326.15-6.762 1.802-0.902 4.509l6.311 2.254 66.721-5.41z" fill="url(#e)"/>
  <path d="m-1490.3 326.6-16.229-35.163l22.991 34.713-1.352 1.802z" opacity=".34"/>
  <path d="m-1471.4 331.55a8.791 8.19 0 1 0 -17.582 0 8.791 8.19 0 1 0 17.582 0" fill="#484848" stroke="#000"/>
  <path d="m-1472.3 331.1a8.115 6.762 0 1 0 -16.23 0 8.115 6.762 0 1 0 16.23 0" fill="url(#d)" stroke="#000"/>
  <path d="m-1476.6 331.1a3.787 3.155 0 1 0 -7.574 0 3.787 3.155 0 1 0 7.574 0" fill="url(#c)" stroke="#000"/>
  <path d="m-1478.4 331.1a1.984 1.652 0 1 0 -3.968 0 1.984 1.652 0 1 0 3.968 0" fill="#4b4b4b" stroke="#000"/>
  <path d="m-1471.8 332.91v-2.254l67.171-0.901-60.859 4.959z" fill="#fff" opacity=".68"/>
  <path d="m-1364.2 356.02c-3.837-1.342-10.21 6.901-14.236 18.413s-4.178 21.93-0.341 23.271l8.114 2.254 8.416-17.01 6.162-24.675-8.115-2.253z" fill="#676767"/>
  <path transform="matrix(-.944 -.3301 .3301 -.944 -2775.5 286.99)" d="m-1356 379.12a7.36 22.08 0 1 0 -14.72 0 7.36 22.08 0 1 0 14.72 0" fill="#cdcdcd"/>
  <path d="m-1357.705,364.377c-.283-.368-.618-.631-1.008-.768-2.938-1.027-7.818,5.284-10.9,14.098s-3.198,16.79-.261,17.817l1.297,1.398 6.312-13.975 5.861-17.582-1.301-.988z" fill="#404040"/>
  <path transform="matrix(-.9439 -.3301 .3301 -.9439 -2774 288.92)" d="m-1356.9 380.02a5.635 16.906 0 1 0 -11.27 0 5.635 16.906 0 1 0 11.27 0" fill="#9c9c9c"/>
  <path d="m-1366.3 356.35 7.213 2.254" fill="none" stroke="#1a1a1a" stroke-width="2"/>
  <path d="m-1369.5 358.94 7.213 2.253" fill="none" stroke="#1a1a1a" stroke-width="2"/>
  <path d="m-1371.3 361.52 7.213 2.253" fill="none" stroke="#1a1a1a" stroke-width="2"/>
  <path d="m-1373.1 364.1 7.2121 2.254" fill="none" stroke="#1a1a1a" stroke-width="2"/>
  <path d="m-1374.9 366.69 7.2129 2.254" fill="none" stroke="#1a1a1a" stroke-width="2"/>
  <path d="m-1381.2 384.78 7.213 2.254" fill="none" stroke="#1a1a1a" stroke-width="2"/>
  <path d="m-1380.7 382.2 7.214 2.254" fill="none" stroke="#1a1a1a" stroke-width="2"/>
  <path d="m-1380.3 379.61 7.214 2.254" fill="none" stroke="#1a1a1a" stroke-width="2"/>
  <path d="m-1381.2 387.37 7.213 2.254" fill="none" stroke="#1a1a1a" stroke-width="2"/>
  <path d="m-1377.6 374.44 7.213 2.254" fill="none" stroke="#1a1a1a" stroke-width="2"/>
  <path d="m-1379.4 377.03 7.213 2.254" fill="none" stroke="#1a1a1a" stroke-width="2"/>
  <path d="m-1376.7 371.86 7.213 2.255" fill="none" stroke="#1a1a1a" stroke-width="2"/>
  <path d="m-1375.8 369.27 7.213 2.254" fill="none" stroke="#1a1a1a" stroke-width="2"/>
  <path d="m-1381.2 392.54 7.213 2.254" fill="none" stroke="#1a1a1a" stroke-width="2"/>
  <path d="m-1380.7 395.12 7.214 2.254" fill="none" stroke="#1a1a1a" stroke-width="2"/>
  <path d="m-1474.2 552.36 5.156-5.37s-1.323-1.704-2.403-1.562-4.436 5.276-4.436 5.276l1.683 1.656z" fill="#3d2a04"/>
  <path d="m-1458.6 535.07 6.271-7.645s-1.693-2.505-3.034-2.329-5.376 7.527-5.376 7.527l2.139 2.447z" fill="#3d2a04"/>
  <path d="m-1441.4 509.71 6.271-7.645s-1.693-2.505-3.034-2.329-5.377 7.527-5.377 7.527l2.14 2.447z" fill="#3d2a04"/>
  <path d="m-1423.8 481.99 6.271-7.645s-1.693-2.506-3.034-2.329-5.377 7.526-5.377 7.526l2.14 2.448z" fill="#3d2a04"/>
  <path d="m-1557 577.25c-11.27-13.975-10.369-27.95-12.172-35.163s6.762-77.54 6.762-77.54l60.409 25.246s-16.68 76.638-17.131 83.4 4.959 25.696 7.664 29.303" fill="none" opacity=".24" stroke="#000" stroke-dasharray="12" stroke-width="3"/>
  <path d="m-1389.3 206.23c-1.803-0.451-40.573 20.286-40.573 20.286" fill="none" opacity=".24" stroke="#000" stroke-dasharray="12" stroke-width="3"/>
  <path d="m-1362.3 241.84s21.639-21.188 25.246-21.64" fill="none" opacity=".24" stroke="#000" stroke-dasharray="12" stroke-width="3"/>
  <path d="m-1568.2 434.34s-4.657 5.795-2.329 8.21 83.368 38.151 90.354 39.117 7.452-4.346 7.452-4.346-89.423-43.464-95.477-42.981z" fill="url(#b)" opacity=".11"/>
  <path d="m-1573.7 455.08s34.712 50.933 34.712 94.671c0 10.368 30.205 33.811 36.516 52.745l20.286-95.572s4.508-21.64-6.311-24.344c-10.82-2.705-82.499-39.222-85.204-36.517-2.704 2.706 1e-3 9.017 1e-3 9.017z" fill="url(#a)" opacity=".19"/>
  <path d="m-1495.7 574.09s25.246 22.541 59.958-30.655 63.114-89.261 63.114-89.261l3.606 2.254s-77.089 125.33-99.63 139.75c-12.888 8.248-22.541 6.312-25.245 2.705s-1.803-24.795-1.803-24.795z" fill="#fff" opacity=".1"/>
  <path d="m-1381.2 494.75 17.581-48.237l2.255 1.802-17.131 47.336z" fill="#fff" opacity=".72"/>
  <path d="m-1403.7 513.23s9.016-0.902 26.598-14.877c4.25-3.378 6.762-14.877 6.762-14.877l-4.959 15.778s-18.483 14.877-25.696 15.778-2.705-1.802-2.705-1.802z" opacity=".47"/>
  <path d="m-1361.4 448.32-14.877 45.984" fill="none" opacity=".62" stroke="#000" stroke-width="3"/>
  <path d="m-1353.7 420.82s-2.705 16.68-5.86 20.286-17.131-3.606-23.893-4.508 23.442 0.451 29.753-17.582" fill="#fff" opacity=".18"/>
  <path d="m-1327.6 327.05s-2.705 18.935-8.566 19.385l-5.86 0.451 15.778 2.705 4.959-23.894s-3.155-2.254-6.311 1.353z" fill="#fff" opacity=".28"/>
  <path d="m-1425.4 332.46s-13.074 33.811-16.229 39.671 9.467 6.312 19.836 1.353 16.229-48.236 14.877-47.335-15.328-2.706-18.484 6.311z" fill="#fff" opacity=".62"/>
  <path d="m-1446.6 374.38s-37.868 8.565-50.942 5.409c-13.073-3.155 7.664-66.27 21.188-72.581s44.18-3.606 49.589 7.213-6.311 48.688-19.835 59.959z" fill="#fff" opacity=".12"/>
  <path d="m-1493 275.2s-41.475 13.524-47.335 68.073 55 39.672 64.917 40.122 73.482-15.778 73.031-8.565-71.679 54.098-120.37 30.655-34.262-84.302-22.09-103.24 59.508-44.18 69.876-42.827-2.704 5.86-18.032 15.778z" opacity=".09"/>
  <path d="m-1360.5 275.65s-20.737 6.312-22.541 6.312-8.115-15.778-14.426-17.131 12.172 13.975 19.385 30.655 9.918 4.058 11.27 4.058 5.861-26.148 6.312-23.894z" fill="#fff" opacity=".36"/>
  <path d="m-1398.8 440.2s-8.565 10.819-9.016 16.229-5.41 2.254-5.41 2.254 6.312-19.385 7.664-19.385 6.762 0.902 6.762 0.902z" fill="#9c9c9c"/>
  <path d="m-1405.1 446.06-1.804-2.254l-2.705 7.213 3.156 1.803z" fill="#fff" opacity=".39"/>
  <path d="m-1464.1 487.99s19.385-23.442 25.246-36.516 10.819-17.582 12.172-17.131 10.369-9.468 10.369-9.468l0.451 6.763s-16.229 10.819-16.229 14.426-23.893 36.967-24.795 39.221-4.508 8.565-4.508 8.565l-2.706-5.86z" fill="#fff" opacity=".17"/>
  <path d="m-1337.6 223.41s4.733 4.057 0 9.466-29.076 23.667-29.076 23.667 17.581-8.114 29.752-17.581c6.056-4.71 14.995-1.656 15.252-3.43 0.977-6.713-15.928-12.122-15.928-12.122z" opacity=".16"/>
  <path d="m-1386.3 246.4s-27.047-8.114-19.609-21.639 4.057-14.199 4.057-14.199-27.048 5.409-29.752 8.114c-2.705 2.704-17.581 10.143-17.581 10.143s48.009 21.638 62.885 17.581z" opacity=".11"/>
  <path d="m-1422.2 295.94-11.271 5.862" fill="none" opacity=".53" stroke="#fff" stroke-width=".75"/>
  <path d="m-1473.2 384.75 2.254 10.819" fill="none" opacity=".53" stroke="#fff" stroke-width=".75"/>
  <path d="m-1422.2 266.64s42.213 15.463 34.712 69.876c-8.265 59.959-60.628 75.611-73.935 79.74s-39.92 4.589-51.391-1.835" fill="none" opacity=".65" stroke="#fff" stroke-linecap="round" stroke-width="3"/>
  <path d="m-1413.4 339.04s-10.819 12.172-10.819 18.258 5.41 8.114 5.41 8.114l5.409-26.372z" fill="#fff" opacity=".36"/>
 </g>
</svg>
